<svg width="32" height="32" viewBox="0 0 32 32" fill="none" xmlns="http://www.w3.org/2000/svg">
  <rect width="32" height="32" rx="8" fill="#3F51B5"/>
  <path d="M16 7C11.0294 7 7 11.0294 7 16C7 20.9706 11.0294 25 16 25C20.9706 25 25 20.9706 25 16C25 11.0294 20.9706 7 16 7ZM16 9C19.866 9 23 12.134 23 16C23 19.866 19.866 23 16 23C12.134 23 9 19.866 9 16C9 12.134 12.134 9 16 9Z" fill="white"/>
  <circle cx="16" cy="16" r="4" fill="white"/>
  <path d="M16 6V2" stroke="white" stroke-width="2" stroke-linecap="round"/>
  <path d="M16 30V26" stroke="white" stroke-width="2" stroke-linecap="round"/>
  <path d="M26 16H30" stroke="white" stroke-width="2" stroke-linecap="round"/>
  <path d="M2 16H6" stroke="white" stroke-width="2" stroke-linecap="round"/>
</svg>
