<svg width="800" height="500" viewBox="0 0 800 500" xmlns="http://www.w3.org/2000/svg">
  <!-- Background -->
  <rect width="800" height="500" fill="#f5f5f5" />
  
  <!-- Header -->
  <rect width="800" height="60" fill="#4a148c" />
  <text x="20" y="38" font-family="Arial" font-size="24" fill="white">NexusAI: Memory System</text>
  
  <!-- Sidebar -->
  <rect x="0" y="60" width="200" height="440" fill="#ffffff" />
  <rect x="10" y="80" width="180" height="40" rx="5" fill="#f5f5f5" />
  <text x="25" y="105" font-family="Arial" font-size="16" fill="#424242">Chat</text>
  
  <rect x="10" y="130" width="180" height="40" rx="5" fill="#f5f5f5" />
  <text x="25" y="155" font-family="Arial" font-size="16" fill="#424242">Documents</text>
  
  <rect x="10" y="180" width="180" height="40" rx="5" fill="#e0e0e0" />
  <text x="25" y="205" font-family="Arial" font-size="16" fill="#424242">Memories</text>
  
  <rect x="10" y="230" width="180" height="40" rx="5" fill="#f5f5f5" />
  <text x="25" y="255" font-family="Arial" font-size="16" fill="#424242">Settings</text>
  
  <!-- Memory Area -->
  <rect x="200" y="60" width="600" height="440" fill="#ffffff" />
  
  <!-- Search and Filter -->
  <rect x="220" y="80" width="560" height="50" rx="5" fill="#f5f5f5" />
  <rect x="240" y="90" width="300" height="30" rx="15" fill="white" stroke="#bdbdbd" />
  <text x="260" y="110" font-family="Arial" font-size="14" fill="#9e9e9e">Search memories...</text>
  
  <rect x="560" y="90" width="100" height="30" rx="5" fill="white" stroke="#bdbdbd" />
  <text x="575" y="110" font-family="Arial" font-size="14" fill="#424242">Tags ▾</text>
  
  <rect x="670" y="90" width="90" height="30" rx="5" fill="#4a148c" />
  <text x="685" y="110" font-family="Arial" font-size="14" fill="white">Add New</text>
  
  <!-- Memory Tags -->
  <rect x="220" y="140" width="560" height="40" rx="5" fill="#f5f5f5" />
  <rect x="240" y="145" width="80" height="30" rx="15" fill="#e1bee7" />
  <text x="255" y="165" font-family="Arial" font-size="14" fill="#6a1b9a">Personal</text>
  
  <rect x="330" y="145" width="80" height="30" rx="15" fill="#bbdefb" />
  <text x="345" y="165" font-family="Arial" font-size="14" fill="#0d47a1">Work</text>
  
  <rect x="420" y="145" width="100" height="30" rx="15" fill="#c8e6c9" />
  <text x="435" y="165" font-family="Arial" font-size="14" fill="#1b5e20">Important</text>
  
  <rect x="530" y="145" width="90" height="30" rx="15" fill="#ffecb3" />
  <text x="545" y="165" font-family="Arial" font-size="14" fill="#ff6f00">Project</text>
  
  <!-- Memory Cards -->
  <!-- Memory 1 -->
  <rect x="220" y="190" width="560" height="80" rx="5" fill="white" stroke="#e0e0e0" />
  <rect x="220" y="190" width="10" height="80" rx="0" fill="#6a1b9a" />
  <text x="240" y="215" font-family="Arial" font-size="16" font-weight="bold" fill="#424242">User prefers dark mode for all interfaces</text>
  <text x="240" y="235" font-family="Arial" font-size="14" fill="#757575">Created: May 30, 2025 • Tags: Personal, Preferences</text>
  <text x="240" y="255" font-family="Arial" font-size="14" fill="#9e9e9e">Similarity: 98%</text>
  
  <!-- Memory 2 -->
  <rect x="220" y="280" width="560" height="80" rx="5" fill="white" stroke="#e0e0e0" />
  <rect x="220" y="280" width="10" height="80" rx="0" fill="#0d47a1" />
  <text x="240" y="305" font-family="Arial" font-size="16" font-weight="bold" fill="#424242">Project deadline is June 15, 2025</text>
  <text x="240" y="325" font-family="Arial" font-size="14" fill="#757575">Created: May 25, 2025 • Tags: Work, Important, Project</text>
  <text x="240" y="345" font-family="Arial" font-size="14" fill="#9e9e9e">Similarity: 85%</text>
  
  <!-- Memory 3 -->
  <rect x="220" y="370" width="560" height="80" rx="5" fill="white" stroke="#e0e0e0" />
  <rect x="220" y="370" width="10" height="80" rx="0" fill="#1b5e20" />
  <text x="240" y="395" font-family="Arial" font-size="16" font-weight="bold" fill="#424242">Meeting with team scheduled for June 2, 10:00 AM</text>
  <text x="240" y="415" font-family="Arial" font-size="14" fill="#757575">Created: May 20, 2025 • Tags: Work, Important</text>
  <text x="240" y="435" font-family="Arial" font-size="14" fill="#9e9e9e">Similarity: 72%</text>
</svg>
