<svg width="200" height="200" viewBox="0 0 200 200" xmlns="http://www.w3.org/2000/svg">
  <!-- Background Circle -->
  <circle cx="100" cy="100" r="90" fill="#4a148c" />
  
  <!-- N Letter -->
  <path d="M60,60 L60,140 L80,140 L120,80 L120,140 L140,140 L140,60 L120,60 L80,120 L80,60 Z" fill="#ffffff" />
  
  <!-- Brain Circuit Lines -->
  <path d="M30,100 Q50,70 70,100 Q90,130 110,100 Q130,70 150,100 Q170,130 190,100" stroke="#64ffda" stroke-width="4" fill="none" />
  <path d="M30,120 Q50,90 70,120 Q90,150 110,120 Q130,90 150,120 Q170,150 190,120" stroke="#64ffda" stroke-width="4" fill="none" />
  
  <!-- Dots at connection points -->
  <circle cx="70" cy="100" r="4" fill="#64ffda" />
  <circle cx="110" cy="100" r="4" fill="#64ffda" />
  <circle cx="150" cy="100" r="4" fill="#64ffda" />
  <circle cx="70" cy="120" r="4" fill="#64ffda" />
  <circle cx="110" cy="120" r="4" fill="#64ffda" />
  <circle cx="150" cy="120" r="4" fill="#64ffda" />
</svg>
